<svg xmlns="http://www.w3.org/2000/svg" width="24.641" height="15" viewBox="0 0 24.641 15">
  <g id="Exclusion_1" data-name="Exclusion 1" transform="translate(28 -2509)" fill="#cf0000">
    <path d="M -15.67890071868896 2523.50048828125 C -18.29508018493652 2523.50048828125 -20.80913162231445 2522.79931640625 -22.94926071166992 2521.472412109375 C -24.96406745910645 2520.222900390625 -26.51660537719727 2518.5068359375 -27.45099639892578 2516.5 C -26.51669692993164 2514.493408203125 -24.96419143676758 2512.777587890625 -22.9492301940918 2511.5283203125 C -21.42485046386719 2510.5830078125 -19.71032905578613 2509.955322265625 -17.90409851074219 2509.672607421875 C -20.52507781982422 2510.60498046875 -22.40914154052734 2513.136474609375 -22.40914154052734 2516.10546875 C -22.40914154052734 2519.863525390625 -19.38997077941895 2522.9208984375 -15.67890071868896 2522.9208984375 C -11.96783065795898 2522.9208984375 -8.948660850524902 2519.863525390625 -8.948660850524902 2516.10546875 C -8.948660850524902 2513.136474609375 -10.83268356323242 2510.60498046875 -13.45366287231445 2509.672607421875 C -11.64749908447266 2509.955322265625 -9.933181762695313 2510.5830078125 -8.408930778503418 2511.5283203125 C -6.394211769104004 2512.77734375 -4.841818332672119 2514.4931640625 -3.907498598098755 2516.5 C -4.84201717376709 2518.50732421875 -6.394327163696289 2520.22314453125 -8.408950805664063 2521.472412109375 C -10.54885101318359 2522.79931640625 -13.06277084350586 2523.50048828125 -15.67890071868896 2523.50048828125 Z M -15.67890071868896 2518.76318359375 C -17.12108039855957 2518.76318359375 -18.29437065124512 2517.571044921875 -18.29437065124512 2516.10546875 C -18.29437065124512 2514.6396484375 -17.12108039855957 2513.447265625 -15.67890071868896 2513.447265625 C -14.23711109161377 2513.447265625 -13.06413078308105 2514.6396484375 -13.06413078308105 2516.10546875 C -13.06413078308105 2517.571044921875 -14.23711109161377 2518.76318359375 -15.67890071868896 2518.76318359375 Z" stroke="none"/>
    <path d="M -19.01999855041504 2522.592041015625 C -21.32956314086914 2521.369140625 -22.90914154052734 2518.92041015625 -22.90914154052734 2516.10546875 C -22.90914154052734 2514.1328125 -22.13353157043457 2512.340087890625 -20.8746509552002 2511.02294921875 C -21.50302124023438 2511.28466796875 -22.10853004455566 2511.59521484375 -22.68575096130371 2511.953125 C -24.54636383056641 2513.106689453125 -25.99435424804688 2514.67236328125 -26.89650917053223 2516.5 C -25.99425315856934 2518.32763671875 -24.54622840881348 2519.8935546875 -22.68581008911133 2521.047607421875 C -21.55797958374023 2521.746826171875 -20.32172584533691 2522.265625 -19.01999855041504 2522.592041015625 M -12.33771133422852 2522.591796875 C -11.03605937957764 2522.265380859375 -9.800138473510742 2521.746826171875 -8.672460556030273 2521.047607421875 C -6.812276363372803 2519.89404296875 -5.364346504211426 2518.328125 -4.46198034286499 2516.5 C -5.364142894744873 2514.67236328125 -6.812030792236328 2513.106689453125 -8.67241096496582 2511.953125 C -9.24946117401123 2511.595458984375 -9.854826927185059 2511.284912109375 -10.48300933837891 2511.023193359375 C -9.224128723144531 2512.34033203125 -8.448660850524902 2514.1328125 -8.448660850524902 2516.10546875 C -8.448660850524902 2518.92041015625 -10.02814674377441 2521.369140625 -12.33771133422852 2522.591796875 M -15.67890071868896 2518.26318359375 C -14.51281070709229 2518.26318359375 -13.56413078308105 2517.295166015625 -13.56413078308105 2516.10546875 C -13.56413078308105 2514.91552734375 -14.51281070709229 2513.947265625 -15.67890071868896 2513.947265625 C -16.84537124633789 2513.947265625 -17.79437065124512 2514.91552734375 -17.79437065124512 2516.10546875 C -17.79437065124512 2517.295166015625 -16.84537124633789 2518.26318359375 -15.67890071868896 2518.26318359375 M -15.67890071868896 2524.00048828125 C -18.38877105712891 2524.00048828125 -20.99392127990723 2523.27294921875 -23.21271133422852 2521.8974609375 C -25.38078117370605 2520.552734375 -27.03616142272949 2518.6865234375 -27.99990081787109 2516.5 C -27.03610992431641 2514.313232421875 -25.3807201385498 2512.447509765625 -23.21271133422852 2511.103271484375 C -20.9937915802002 2509.7275390625 -18.38864135742188 2509.00048828125 -15.67890071868896 2509.00048828125 C -12.96921062469482 2509.00048828125 -10.36418056488037 2509.7275390625 -8.145441055297852 2511.103271484375 C -5.977520942687988 2512.447509765625 -4.322260856628418 2514.3134765625 -3.358600616455078 2516.5 C -4.322510719299316 2518.68701171875 -5.977770805358887 2520.55322265625 -8.145441055297852 2521.8974609375 C -10.36405086517334 2523.27294921875 -12.96908092498779 2524.00048828125 -15.67890071868896 2524.00048828125 Z M -15.67890071868896 2509.789794921875 C -19.11426162719727 2509.789794921875 -21.90914154052734 2512.623046875 -21.90914154052734 2516.10546875 C -21.90914154052734 2519.587890625 -19.11426162719727 2522.4208984375 -15.67890071868896 2522.4208984375 C -12.2435302734375 2522.4208984375 -9.448660850524902 2519.587890625 -9.448660850524902 2516.10546875 C -9.448660850524902 2512.623046875 -12.2435302734375 2509.789794921875 -15.67890071868896 2509.789794921875 Z M -15.67890071868896 2519.26318359375 C -17.39677047729492 2519.26318359375 -18.79437065124512 2517.8466796875 -18.79437065124512 2516.10546875 C -18.79437065124512 2514.3642578125 -17.39677047729492 2512.947265625 -15.67890071868896 2512.947265625 C -13.96141052246094 2512.947265625 -12.56413078308105 2514.3642578125 -12.56413078308105 2516.10546875 C -12.56413078308105 2517.8466796875 -13.96141052246094 2519.26318359375 -15.67890071868896 2519.26318359375 Z" stroke="none" fill="#cf0000"/>
  </g>
</svg>
